<svg width="64" height="64" viewBox="0 0 64 64" fill="none" xmlns="http://www.w3.org/2000/svg">
<path d="M0.555233 52.3715L0.563162 52.3412C0.676026 51.9085 1.00404 51.6184 1.39455 51.4313L1.40204 51.4277L1.40965 51.4244L13.4167 46.1543V38.7533L1.54772 31.6997C0.865112 31.3128 0.5 30.6994 0.5 29.9167V13.3976C0.5 12.917 0.52928 12.5119 0.612474 12.2273C0.727616 11.8008 1.10094 11.4599 1.52206 11.1805L1.52639 11.1776L1.52641 11.1777L13.8794 3.16565L13.8907 3.15837L13.9023 3.15169C14.2275 2.96468 14.5323 2.8169 14.8147 2.71427C15.172 2.56481 15.5826 2.5 16.0303 2.5H28.7121C29.1754 2.5 29.6156 2.61067 29.9388 2.92032C30.2659 3.23378 30.3864 3.66756 30.3864 4.12528V11.7772C30.3864 12.5689 30.0911 13.2243 29.4094 13.5728L29.3879 13.5837L29.3655 13.5926L17.3758 18.3288V26.0198L29.406 32.6202C30.1195 32.9504 30.3864 33.6724 30.3864 34.5079V54.0878C30.3864 54.3855 30.3296 54.6884 30.2259 54.9935C30.1241 55.3983 29.8704 55.7076 29.4918 55.889L29.4907 55.8896L14.7433 62.9108L0.555233 52.3715ZM0.555233 52.3715L0.55117 52.4027M0.555233 52.3715L0.55117 52.4027M0.55117 52.4027C0.5159 52.6731 0.5 53.0122 0.5 53.4126V61.8747C0.5 62.3324 0.620511 62.7662 0.947614 63.0797C1.27074 63.3893 1.71095 63.5 2.17424 63.5H13.0712C13.4043 63.5 13.7283 63.4197 14.0388 63.2709L14.0483 63.2663M0.55117 52.4027L14.0483 63.2663M14.0483 63.2663L14.0577 63.2613M14.0483 63.2663L14.0577 63.2613M14.0577 63.2613C14.3356 63.1134 14.5633 62.9971 14.7422 62.9113L14.0577 63.2613ZM63.4448 52.3715L63.4488 52.4027C63.4841 52.6731 63.5 53.0122 63.5 53.4126V61.8747C63.5 62.3324 63.3795 62.7662 63.0524 63.0797C62.7293 63.3893 62.289 63.5 61.8258 63.5H50.9288C50.5957 63.5 50.2717 63.4197 49.9612 63.2709L49.9517 63.2663L49.9423 63.2613C49.6644 63.1134 49.4367 62.9971 49.2578 62.9113L63.4448 52.3715ZM63.4448 52.3715L63.4368 52.3412C63.324 51.9085 62.996 51.6184 62.6055 51.4313L62.598 51.4277L62.5904 51.4244L50.5833 46.1543M63.4448 52.3715L50.5833 46.1543M50.5833 46.1543V38.7533L62.4523 31.6997C63.1349 31.3128 63.5 30.6994 63.5 29.9167V13.3976C63.5 12.917 63.4707 12.5119 63.3875 12.2273C63.2724 11.8008 62.8991 11.4599 62.478 11.1805L62.4736 11.1777L50.1206 3.16565L50.1093 3.15837L50.0977 3.15169C49.7725 2.96468 49.4677 2.81691 49.1853 2.71427C48.828 2.56481 48.4174 2.5 47.9697 2.5H35.2879C34.8246 2.5 34.3844 2.61067 34.0613 2.92032C33.7341 3.23378 33.6136 3.66756 33.6136 4.12528V11.7772C33.6136 12.5689 33.9089 13.2243 34.5906 13.5728L34.6121 13.5837L34.6345 13.5926L46.6242 18.3288V26.0198L34.594 32.6202C33.8805 32.9504 33.6136 33.6724 33.6136 34.5079V54.0878C33.6136 54.3855 33.6704 54.6884 33.7741 54.9934C33.8759 55.3983 34.1295 55.7076 34.5082 55.889L34.5093 55.8896L49.2567 62.9108L50.5833 46.1543Z" fill="#7A4441" stroke="white"/>
</svg>
